<mxfile host="app.diagrams.net" modified="2024-01-03T19:20:01.363Z" agent="Mozilla/5.0 (Windows NT 10.0; Win64; x64; rv:121.0) Gecko/20100101 Firefox/121.0" etag="i-4W8dhYirK_BANCg7oQ" version="21.6.9" type="device">
  <diagram name="Страница — 1" id="0o6rIUhaXRKFQ5MIgri-">
    <mxGraphModel dx="3707" dy="1537" grid="1" gridSize="10" guides="1" tooltips="1" connect="1" arrows="1" fold="1" page="1" pageScale="1" pageWidth="827" pageHeight="1169" math="0" shadow="0">
      <root>
        <mxCell id="0" />
        <mxCell id="1" parent="0" />
        <mxCell id="KKVAaUupS59_qvrC89-b-3" style="edgeStyle=orthogonalEdgeStyle;rounded=0;orthogonalLoop=1;jettySize=auto;html=1;entryX=0.5;entryY=0;entryDx=0;entryDy=0;" edge="1" parent="1" source="KKVAaUupS59_qvrC89-b-1" target="KKVAaUupS59_qvrC89-b-2">
          <mxGeometry relative="1" as="geometry" />
        </mxCell>
        <mxCell id="KKVAaUupS59_qvrC89-b-1" value="Начало" style="ellipse;whiteSpace=wrap;html=1;" vertex="1" parent="1">
          <mxGeometry x="60" y="20" width="120" height="80" as="geometry" />
        </mxCell>
        <mxCell id="KKVAaUupS59_qvrC89-b-5" style="edgeStyle=orthogonalEdgeStyle;rounded=0;orthogonalLoop=1;jettySize=auto;html=1;" edge="1" parent="1" source="KKVAaUupS59_qvrC89-b-2" target="KKVAaUupS59_qvrC89-b-4">
          <mxGeometry relative="1" as="geometry" />
        </mxCell>
        <mxCell id="KKVAaUupS59_qvrC89-b-2" value="Введите a, b, h" style="shape=parallelogram;perimeter=parallelogramPerimeter;whiteSpace=wrap;html=1;fixedSize=1;" vertex="1" parent="1">
          <mxGeometry x="60" y="150" width="120" height="60" as="geometry" />
        </mxCell>
        <mxCell id="KKVAaUupS59_qvrC89-b-8" style="edgeStyle=orthogonalEdgeStyle;rounded=0;orthogonalLoop=1;jettySize=auto;html=1;entryX=0;entryY=0.5;entryDx=0;entryDy=0;" edge="1" parent="1" source="KKVAaUupS59_qvrC89-b-4" target="KKVAaUupS59_qvrC89-b-7">
          <mxGeometry relative="1" as="geometry" />
        </mxCell>
        <mxCell id="KKVAaUupS59_qvrC89-b-13" style="edgeStyle=orthogonalEdgeStyle;rounded=0;orthogonalLoop=1;jettySize=auto;html=1;entryX=0.5;entryY=0;entryDx=0;entryDy=0;" edge="1" parent="1" source="KKVAaUupS59_qvrC89-b-4" target="KKVAaUupS59_qvrC89-b-9">
          <mxGeometry relative="1" as="geometry" />
        </mxCell>
        <mxCell id="KKVAaUupS59_qvrC89-b-4" value="x = a, b, h" style="verticalLabelPosition=bottom;verticalAlign=top;html=1;shape=hexagon;perimeter=hexagonPerimeter2;arcSize=6;size=0.27;" vertex="1" parent="1">
          <mxGeometry x="70" y="280" width="100" height="60" as="geometry" />
        </mxCell>
        <mxCell id="KKVAaUupS59_qvrC89-b-33" style="edgeStyle=orthogonalEdgeStyle;rounded=0;orthogonalLoop=1;jettySize=auto;html=1;entryX=0;entryY=0.5;entryDx=0;entryDy=0;" edge="1" parent="1" source="KKVAaUupS59_qvrC89-b-6" target="KKVAaUupS59_qvrC89-b-4">
          <mxGeometry relative="1" as="geometry">
            <Array as="points">
              <mxPoint x="-380" y="930" />
              <mxPoint x="-380" y="310" />
            </Array>
          </mxGeometry>
        </mxCell>
        <mxCell id="KKVAaUupS59_qvrC89-b-6" value="Вывод x, y" style="shape=parallelogram;perimeter=parallelogramPerimeter;whiteSpace=wrap;html=1;fixedSize=1;" vertex="1" parent="1">
          <mxGeometry x="60" y="900" width="120" height="60" as="geometry" />
        </mxCell>
        <mxCell id="KKVAaUupS59_qvrC89-b-7" value="Конец" style="ellipse;whiteSpace=wrap;html=1;" vertex="1" parent="1">
          <mxGeometry x="400" y="270" width="120" height="80" as="geometry" />
        </mxCell>
        <mxCell id="KKVAaUupS59_qvrC89-b-12" style="edgeStyle=orthogonalEdgeStyle;rounded=0;orthogonalLoop=1;jettySize=auto;html=1;entryX=0.5;entryY=0;entryDx=0;entryDy=0;" edge="1" parent="1" source="KKVAaUupS59_qvrC89-b-9" target="KKVAaUupS59_qvrC89-b-11">
          <mxGeometry relative="1" as="geometry" />
        </mxCell>
        <mxCell id="KKVAaUupS59_qvrC89-b-14" value="Нет" style="edgeLabel;html=1;align=center;verticalAlign=middle;resizable=0;points=[];" vertex="1" connectable="0" parent="KKVAaUupS59_qvrC89-b-12">
          <mxGeometry x="-0.3548" y="4" relative="1" as="geometry">
            <mxPoint x="1" as="offset" />
          </mxGeometry>
        </mxCell>
        <mxCell id="KKVAaUupS59_qvrC89-b-22" style="edgeStyle=orthogonalEdgeStyle;rounded=0;orthogonalLoop=1;jettySize=auto;html=1;entryX=0.5;entryY=0;entryDx=0;entryDy=0;" edge="1" parent="1" source="KKVAaUupS59_qvrC89-b-9" target="KKVAaUupS59_qvrC89-b-21">
          <mxGeometry relative="1" as="geometry" />
        </mxCell>
        <mxCell id="KKVAaUupS59_qvrC89-b-26" value="&lt;div&gt;Да&lt;/div&gt;" style="edgeLabel;html=1;align=center;verticalAlign=middle;resizable=0;points=[];" vertex="1" connectable="0" parent="KKVAaUupS59_qvrC89-b-22">
          <mxGeometry x="-0.2476" relative="1" as="geometry">
            <mxPoint x="-1" as="offset" />
          </mxGeometry>
        </mxCell>
        <mxCell id="KKVAaUupS59_qvrC89-b-9" value="x &amp;lt;= -1" style="rhombus;whiteSpace=wrap;html=1;" vertex="1" parent="1">
          <mxGeometry x="80" y="380" width="80" height="80" as="geometry" />
        </mxCell>
        <mxCell id="KKVAaUupS59_qvrC89-b-16" style="edgeStyle=orthogonalEdgeStyle;rounded=0;orthogonalLoop=1;jettySize=auto;html=1;entryX=0.5;entryY=0;entryDx=0;entryDy=0;" edge="1" parent="1" source="KKVAaUupS59_qvrC89-b-11" target="KKVAaUupS59_qvrC89-b-15">
          <mxGeometry relative="1" as="geometry" />
        </mxCell>
        <mxCell id="KKVAaUupS59_qvrC89-b-17" value="Нет" style="edgeLabel;html=1;align=center;verticalAlign=middle;resizable=0;points=[];" vertex="1" connectable="0" parent="KKVAaUupS59_qvrC89-b-16">
          <mxGeometry x="-0.5127" y="-2" relative="1" as="geometry">
            <mxPoint x="1" as="offset" />
          </mxGeometry>
        </mxCell>
        <mxCell id="KKVAaUupS59_qvrC89-b-25" style="edgeStyle=orthogonalEdgeStyle;rounded=0;orthogonalLoop=1;jettySize=auto;html=1;entryX=0.5;entryY=0;entryDx=0;entryDy=0;" edge="1" parent="1" source="KKVAaUupS59_qvrC89-b-11" target="KKVAaUupS59_qvrC89-b-24">
          <mxGeometry relative="1" as="geometry" />
        </mxCell>
        <mxCell id="KKVAaUupS59_qvrC89-b-27" value="Да" style="edgeLabel;html=1;align=center;verticalAlign=middle;resizable=0;points=[];" vertex="1" connectable="0" parent="KKVAaUupS59_qvrC89-b-25">
          <mxGeometry x="-0.4" relative="1" as="geometry">
            <mxPoint x="-1" as="offset" />
          </mxGeometry>
        </mxCell>
        <mxCell id="KKVAaUupS59_qvrC89-b-11" value="-1 &amp;lt; x&amp;nbsp; &amp;lt; 0" style="rhombus;whiteSpace=wrap;html=1;" vertex="1" parent="1">
          <mxGeometry x="-80" y="480" width="80" height="80" as="geometry" />
        </mxCell>
        <mxCell id="KKVAaUupS59_qvrC89-b-19" style="edgeStyle=orthogonalEdgeStyle;rounded=0;orthogonalLoop=1;jettySize=auto;html=1;entryX=0.5;entryY=0;entryDx=0;entryDy=0;" edge="1" parent="1" source="KKVAaUupS59_qvrC89-b-15" target="KKVAaUupS59_qvrC89-b-18">
          <mxGeometry relative="1" as="geometry" />
        </mxCell>
        <mxCell id="KKVAaUupS59_qvrC89-b-31" style="edgeStyle=orthogonalEdgeStyle;rounded=0;orthogonalLoop=1;jettySize=auto;html=1;entryX=0.5;entryY=0;entryDx=0;entryDy=0;" edge="1" parent="1" source="KKVAaUupS59_qvrC89-b-15" target="KKVAaUupS59_qvrC89-b-29">
          <mxGeometry relative="1" as="geometry" />
        </mxCell>
        <mxCell id="KKVAaUupS59_qvrC89-b-32" value="Да" style="edgeLabel;html=1;align=center;verticalAlign=middle;resizable=0;points=[];" vertex="1" connectable="0" parent="KKVAaUupS59_qvrC89-b-31">
          <mxGeometry x="-0.2769" y="-4" relative="1" as="geometry">
            <mxPoint x="-1" as="offset" />
          </mxGeometry>
        </mxCell>
        <mxCell id="KKVAaUupS59_qvrC89-b-15" value="x &amp;gt;= 1" style="rhombus;whiteSpace=wrap;html=1;" vertex="1" parent="1">
          <mxGeometry x="-200" y="640" width="80" height="80" as="geometry" />
        </mxCell>
        <mxCell id="KKVAaUupS59_qvrC89-b-20" style="edgeStyle=orthogonalEdgeStyle;rounded=0;orthogonalLoop=1;jettySize=auto;html=1;entryX=0.5;entryY=0;entryDx=0;entryDy=0;" edge="1" parent="1" source="KKVAaUupS59_qvrC89-b-18" target="KKVAaUupS59_qvrC89-b-6">
          <mxGeometry relative="1" as="geometry" />
        </mxCell>
        <mxCell id="KKVAaUupS59_qvrC89-b-18" value="y = 0" style="rounded=0;whiteSpace=wrap;html=1;" vertex="1" parent="1">
          <mxGeometry x="-350" y="790" width="120" height="60" as="geometry" />
        </mxCell>
        <mxCell id="KKVAaUupS59_qvrC89-b-23" style="edgeStyle=orthogonalEdgeStyle;rounded=0;orthogonalLoop=1;jettySize=auto;html=1;entryX=0.5;entryY=0;entryDx=0;entryDy=0;" edge="1" parent="1" source="KKVAaUupS59_qvrC89-b-21" target="KKVAaUupS59_qvrC89-b-6">
          <mxGeometry relative="1" as="geometry">
            <Array as="points">
              <mxPoint x="300" y="820" />
              <mxPoint x="120" y="820" />
            </Array>
          </mxGeometry>
        </mxCell>
        <mxCell id="KKVAaUupS59_qvrC89-b-21" value="y = 0" style="rounded=0;whiteSpace=wrap;html=1;" vertex="1" parent="1">
          <mxGeometry x="240" y="490" width="120" height="60" as="geometry" />
        </mxCell>
        <mxCell id="KKVAaUupS59_qvrC89-b-28" style="edgeStyle=orthogonalEdgeStyle;rounded=0;orthogonalLoop=1;jettySize=auto;html=1;entryX=0.5;entryY=0;entryDx=0;entryDy=0;" edge="1" parent="1" source="KKVAaUupS59_qvrC89-b-24" target="KKVAaUupS59_qvrC89-b-6">
          <mxGeometry relative="1" as="geometry" />
        </mxCell>
        <mxCell id="KKVAaUupS59_qvrC89-b-24" value="y = 1 + x" style="rounded=0;whiteSpace=wrap;html=1;" vertex="1" parent="1">
          <mxGeometry x="60" y="650" width="120" height="60" as="geometry" />
        </mxCell>
        <mxCell id="KKVAaUupS59_qvrC89-b-30" style="edgeStyle=orthogonalEdgeStyle;rounded=0;orthogonalLoop=1;jettySize=auto;html=1;entryX=0.5;entryY=0;entryDx=0;entryDy=0;" edge="1" parent="1" source="KKVAaUupS59_qvrC89-b-29" target="KKVAaUupS59_qvrC89-b-6">
          <mxGeometry relative="1" as="geometry">
            <Array as="points">
              <mxPoint x="-40" y="820" />
              <mxPoint x="120" y="820" />
            </Array>
          </mxGeometry>
        </mxCell>
        <mxCell id="KKVAaUupS59_qvrC89-b-29" value="y = cos(PI * (x/2))" style="rounded=0;whiteSpace=wrap;html=1;" vertex="1" parent="1">
          <mxGeometry x="-100" y="730" width="120" height="60" as="geometry" />
        </mxCell>
      </root>
    </mxGraphModel>
  </diagram>
</mxfile>
